<mxfile host="app.diagrams.net" modified="2023-07-16T09:36:02.288Z" agent="Mozilla/5.0 (Windows NT 10.0; Win64; x64) AppleWebKit/537.36 (KHTML, like Gecko) Chrome/114.0.0.0 Safari/537.36 Edg/114.0.1823.79" etag="2qcBGk5z2KIFrqM4vzj0" version="21.6.2" type="github">
  <diagram id="C5RBs43oDa-KdzZeNtuy" name="Page-1">
    <mxGraphModel dx="2514" dy="2113" grid="1" gridSize="10" guides="1" tooltips="1" connect="1" arrows="1" fold="1" page="1" pageScale="1" pageWidth="827" pageHeight="1169" math="0" shadow="0">
      <root>
        <mxCell id="WIyWlLk6GJQsqaUBKTNV-0" />
        <mxCell id="WIyWlLk6GJQsqaUBKTNV-1" parent="WIyWlLk6GJQsqaUBKTNV-0" />
        <mxCell id="llIKmOpzsGY3rdfyKYGp-15" value="Passenger" style="html=1;overflow=block;blockSpacing=1;whiteSpace=wrap;fontSize=16.7;fontColor=#3a414a;spacing=3.8;strokeColor=#3a414a;strokeOpacity=100;rounded=1;absoluteArcSize=1;arcSize=9;strokeWidth=0.8;lucidId=aqNc.QvGIdN3;" vertex="1" parent="WIyWlLk6GJQsqaUBKTNV-1">
          <mxGeometry x="-477" y="-350" width="120" height="60" as="geometry" />
        </mxCell>
        <mxCell id="llIKmOpzsGY3rdfyKYGp-34" style="edgeStyle=orthogonalEdgeStyle;curved=1;rounded=0;orthogonalLoop=1;jettySize=auto;html=1;exitX=1;exitY=0.5;exitDx=0;exitDy=0;entryX=0.25;entryY=1;entryDx=0;entryDy=0;" edge="1" parent="WIyWlLk6GJQsqaUBKTNV-1" source="llIKmOpzsGY3rdfyKYGp-16" target="llIKmOpzsGY3rdfyKYGp-15">
          <mxGeometry relative="1" as="geometry" />
        </mxCell>
        <mxCell id="llIKmOpzsGY3rdfyKYGp-16" value="address" style="html=1;overflow=block;blockSpacing=1;whiteSpace=wrap;ellipse;fontSize=16.7;fontColor=#3a414a;spacing=3.8;strokeColor=#3a414a;strokeOpacity=100;rounded=1;absoluteArcSize=1;arcSize=9;strokeWidth=0.8;lucidId=psNcZAqzcwH2;" vertex="1" parent="WIyWlLk6GJQsqaUBKTNV-1">
          <mxGeometry x="-582" y="-260" width="105" height="60" as="geometry" />
        </mxCell>
        <mxCell id="llIKmOpzsGY3rdfyKYGp-17" value="email" style="html=1;overflow=block;blockSpacing=1;whiteSpace=wrap;ellipse;fontSize=16.7;fontColor=#3a414a;spacing=3.8;strokeColor=#3a414a;strokeOpacity=100;rounded=1;absoluteArcSize=1;arcSize=9;strokeWidth=0.8;lucidId=YsNcjigjqjcq;" vertex="1" parent="WIyWlLk6GJQsqaUBKTNV-1">
          <mxGeometry x="-317" y="-470" width="105" height="60" as="geometry" />
        </mxCell>
        <mxCell id="llIKmOpzsGY3rdfyKYGp-33" style="rounded=0;orthogonalLoop=1;jettySize=auto;html=1;exitX=1;exitY=0.5;exitDx=0;exitDy=0;entryX=-0.008;entryY=0.633;entryDx=0;entryDy=0;entryPerimeter=0;" edge="1" parent="WIyWlLk6GJQsqaUBKTNV-1" source="llIKmOpzsGY3rdfyKYGp-18" target="llIKmOpzsGY3rdfyKYGp-15">
          <mxGeometry relative="1" as="geometry" />
        </mxCell>
        <mxCell id="llIKmOpzsGY3rdfyKYGp-18" value="age" style="html=1;overflow=block;blockSpacing=1;whiteSpace=wrap;ellipse;fontSize=16.7;fontColor=#3a414a;spacing=3.8;strokeColor=#3a414a;strokeOpacity=100;rounded=1;absoluteArcSize=1;arcSize=9;strokeWidth=0.8;lucidId=3sNcCWKbgL2G;" vertex="1" parent="WIyWlLk6GJQsqaUBKTNV-1">
          <mxGeometry x="-667" y="-340" width="105" height="60" as="geometry" />
        </mxCell>
        <mxCell id="llIKmOpzsGY3rdfyKYGp-31" style="edgeStyle=orthogonalEdgeStyle;curved=1;rounded=0;orthogonalLoop=1;jettySize=auto;html=1;exitX=1;exitY=0.5;exitDx=0;exitDy=0;entryX=0;entryY=0.122;entryDx=0;entryDy=0;entryPerimeter=0;" edge="1" parent="WIyWlLk6GJQsqaUBKTNV-1" source="llIKmOpzsGY3rdfyKYGp-19" target="llIKmOpzsGY3rdfyKYGp-15">
          <mxGeometry relative="1" as="geometry" />
        </mxCell>
        <mxCell id="llIKmOpzsGY3rdfyKYGp-44" style="edgeStyle=orthogonalEdgeStyle;curved=1;rounded=0;orthogonalLoop=1;jettySize=auto;html=1;exitX=0;exitY=0.5;exitDx=0;exitDy=0;entryX=0;entryY=0.5;entryDx=0;entryDy=0;" edge="1" parent="WIyWlLk6GJQsqaUBKTNV-1" source="llIKmOpzsGY3rdfyKYGp-19" target="llIKmOpzsGY3rdfyKYGp-36">
          <mxGeometry relative="1" as="geometry">
            <Array as="points">
              <mxPoint x="-740" y="-450" />
              <mxPoint x="-740" y="128" />
            </Array>
          </mxGeometry>
        </mxCell>
        <mxCell id="llIKmOpzsGY3rdfyKYGp-19" value="name" style="html=1;overflow=block;blockSpacing=1;whiteSpace=wrap;ellipse;fontSize=16.7;fontColor=#3a414a;spacing=3.8;strokeColor=#3a414a;strokeOpacity=100;rounded=1;absoluteArcSize=1;arcSize=9;strokeWidth=0.8;lucidId=8sNcfHMIBd2_;" vertex="1" parent="WIyWlLk6GJQsqaUBKTNV-1">
          <mxGeometry x="-647" y="-480" width="105" height="60" as="geometry" />
        </mxCell>
        <mxCell id="llIKmOpzsGY3rdfyKYGp-35" style="edgeStyle=orthogonalEdgeStyle;curved=1;rounded=0;orthogonalLoop=1;jettySize=auto;html=1;exitX=0;exitY=0.5;exitDx=0;exitDy=0;entryX=0.75;entryY=1;entryDx=0;entryDy=0;" edge="1" parent="WIyWlLk6GJQsqaUBKTNV-1" source="llIKmOpzsGY3rdfyKYGp-20" target="llIKmOpzsGY3rdfyKYGp-15">
          <mxGeometry relative="1" as="geometry" />
        </mxCell>
        <mxCell id="llIKmOpzsGY3rdfyKYGp-20" value="custID" style="html=1;overflow=block;blockSpacing=1;whiteSpace=wrap;ellipse;fontSize=16.7;fontColor=#3a414a;fontStyle=4;spacing=3.8;strokeColor=#3a414a;strokeOpacity=100;rounded=1;absoluteArcSize=1;arcSize=9;strokeWidth=0.8;lucidId=_sNc8BPLdhss;" vertex="1" parent="WIyWlLk6GJQsqaUBKTNV-1">
          <mxGeometry x="-327" y="-245" width="105" height="60" as="geometry" />
        </mxCell>
        <mxCell id="llIKmOpzsGY3rdfyKYGp-21" value="phone" style="html=1;overflow=block;blockSpacing=1;whiteSpace=wrap;ellipse;fontSize=16.7;fontColor=#3a414a;spacing=3.8;strokeColor=#3a414a;strokeOpacity=100;rounded=1;absoluteArcSize=1;arcSize=9;strokeWidth=0.8;lucidId=vvNc4~N1PwmI;" vertex="1" parent="WIyWlLk6GJQsqaUBKTNV-1">
          <mxGeometry x="-457" y="-500" width="105" height="60" as="geometry" />
        </mxCell>
        <mxCell id="llIKmOpzsGY3rdfyKYGp-23" value="" style="html=1;jettySize=18;whiteSpace=wrap;fontSize=13;strokeColor=#3a414a;strokeOpacity=100;strokeWidth=2.3;rounded=1;arcSize=12;curved=1;startArrow=block;startFill=1;endArrow=block;endFill=1;exitX=1.003;exitY=0.5;exitPerimeter=0;entryX=0.017;entryY=0.5;entryPerimeter=0;lucidId=9LNcIPM_MifU;" edge="1" parent="WIyWlLk6GJQsqaUBKTNV-1" source="llIKmOpzsGY3rdfyKYGp-15">
          <mxGeometry width="100" height="100" relative="1" as="geometry">
            <Array as="points">
              <mxPoint x="-169" y="-320" />
              <mxPoint x="-347" y="-320" />
            </Array>
            <mxPoint x="-160" y="-320" as="targetPoint" />
          </mxGeometry>
        </mxCell>
        <mxCell id="llIKmOpzsGY3rdfyKYGp-36" value="Payment" style="html=1;overflow=block;blockSpacing=1;whiteSpace=wrap;fontSize=16.7;fontColor=#3a414a;spacing=3.8;strokeColor=#3a414a;strokeOpacity=100;rounded=1;absoluteArcSize=1;arcSize=9;strokeWidth=0.8;lucidId=lpNcRj1GLu4f;" vertex="1" parent="WIyWlLk6GJQsqaUBKTNV-1">
          <mxGeometry x="-542" y="98" width="120" height="60" as="geometry" />
        </mxCell>
        <mxCell id="llIKmOpzsGY3rdfyKYGp-45" style="rounded=0;orthogonalLoop=1;jettySize=auto;html=1;exitX=0.5;exitY=1;exitDx=0;exitDy=0;entryX=0.567;entryY=0.033;entryDx=0;entryDy=0;entryPerimeter=0;" edge="1" parent="WIyWlLk6GJQsqaUBKTNV-1" source="llIKmOpzsGY3rdfyKYGp-37" target="llIKmOpzsGY3rdfyKYGp-36">
          <mxGeometry relative="1" as="geometry" />
        </mxCell>
        <mxCell id="llIKmOpzsGY3rdfyKYGp-37" value="cardNumber" style="html=1;overflow=block;blockSpacing=1;whiteSpace=wrap;ellipse;fontSize=16.7;fontColor=#3a414a;fontStyle=4;spacing=3.8;strokeColor=#3a414a;strokeOpacity=100;rounded=1;absoluteArcSize=1;arcSize=9;strokeWidth=0.8;lucidId=YHNcQHLzXFnK;" vertex="1" parent="WIyWlLk6GJQsqaUBKTNV-1">
          <mxGeometry x="-527" y="-40" width="105" height="60" as="geometry" />
        </mxCell>
        <mxCell id="llIKmOpzsGY3rdfyKYGp-47" style="edgeStyle=orthogonalEdgeStyle;curved=1;rounded=0;orthogonalLoop=1;jettySize=auto;html=1;exitX=0;exitY=0.5;exitDx=0;exitDy=0;entryX=0.75;entryY=1;entryDx=0;entryDy=0;" edge="1" parent="WIyWlLk6GJQsqaUBKTNV-1" source="llIKmOpzsGY3rdfyKYGp-38" target="llIKmOpzsGY3rdfyKYGp-36">
          <mxGeometry relative="1" as="geometry" />
        </mxCell>
        <mxCell id="llIKmOpzsGY3rdfyKYGp-38" value="expDate" style="html=1;overflow=block;blockSpacing=1;whiteSpace=wrap;ellipse;fontSize=16.7;fontColor=#3a414a;spacing=3.8;strokeColor=#3a414a;strokeOpacity=100;rounded=1;absoluteArcSize=1;arcSize=9;strokeWidth=0.8;lucidId=7HNcMu~Wa0Ul;" vertex="1" parent="WIyWlLk6GJQsqaUBKTNV-1">
          <mxGeometry x="-400" y="203" width="105" height="60" as="geometry" />
        </mxCell>
        <mxCell id="llIKmOpzsGY3rdfyKYGp-46" style="edgeStyle=orthogonalEdgeStyle;curved=1;rounded=0;orthogonalLoop=1;jettySize=auto;html=1;exitX=1;exitY=0.5;exitDx=0;exitDy=0;" edge="1" parent="WIyWlLk6GJQsqaUBKTNV-1" source="llIKmOpzsGY3rdfyKYGp-39">
          <mxGeometry relative="1" as="geometry">
            <mxPoint x="-500" y="160" as="targetPoint" />
          </mxGeometry>
        </mxCell>
        <mxCell id="llIKmOpzsGY3rdfyKYGp-39" value="cardType" style="html=1;overflow=block;blockSpacing=1;whiteSpace=wrap;ellipse;fontSize=16.7;fontColor=#3a414a;spacing=3.8;strokeColor=#3a414a;strokeOpacity=100;rounded=1;absoluteArcSize=1;arcSize=9;strokeWidth=0.8;lucidId=9HNcpBpuubVO;" vertex="1" parent="WIyWlLk6GJQsqaUBKTNV-1">
          <mxGeometry x="-647" y="203" width="105" height="60" as="geometry" />
        </mxCell>
        <mxCell id="llIKmOpzsGY3rdfyKYGp-40" value="" style="html=1;jettySize=18;whiteSpace=wrap;fontSize=13;strokeColor=#3a414a;strokeOpacity=100;strokeWidth=2.3;rounded=1;arcSize=12;curved=1;startArrow=none;endArrow=block;endFill=1;exitX=1.003;exitY=0.5;exitPerimeter=0;entryX=0.217;entryY=1.006;entryPerimeter=0;lucidId=SKNcfHXY8eeW;" edge="1" parent="WIyWlLk6GJQsqaUBKTNV-1" source="llIKmOpzsGY3rdfyKYGp-36">
          <mxGeometry width="100" height="100" relative="1" as="geometry">
            <Array as="points">
              <mxPoint x="-222" y="128" />
              <mxPoint x="-39" y="121" />
            </Array>
            <mxPoint x="-39" y="-67" as="targetPoint" />
          </mxGeometry>
        </mxCell>
      </root>
    </mxGraphModel>
  </diagram>
</mxfile>
